<svg width="24" height="24" viewBox="0 0 24 24" fill="none" xmlns="http://www.w3.org/2000/svg">
<path d="M12 22C10.6167 22 9.31667 21.7373 8.1 21.212C6.88334 20.6867 5.825 19.9743 4.925 19.075C4.025 18.1757 3.31267 17.1173 2.788 15.9C2.26333 14.6827 2.00067 13.3827 2 12C1.99933 10.6173 2.262 9.31733 2.788 8.1C3.314 6.88267 4.02633 5.82433 4.925 4.925C5.82367 4.02567 6.882 3.31333 8.1 2.788C9.318 2.26267 10.618 2 12 2C12.8 2 13.5793 2.09167 14.338 2.275C15.0967 2.45833 15.8257 2.725 16.525 3.075C16.775 3.20833 16.9377 3.40833 17.013 3.675C17.0883 3.94167 17.0423 4.19167 16.875 4.425C16.7077 4.65833 16.4867 4.80833 16.212 4.875C15.9373 4.94167 15.6667 4.90833 15.4 4.775C14.8667 4.525 14.3123 4.33333 13.737 4.2C13.1617 4.06667 12.5827 4 12 4C9.78333 4 7.89567 4.77933 6.337 6.338C4.77833 7.89667 3.99933 9.784 4 12C4.00067 14.216 4.78 16.1037 6.338 17.663C7.896 19.2223 9.78333 20.0013 12 20C14.2167 19.9987 16.1043 19.2197 17.663 17.663C19.2217 16.1063 20.0007 14.2187 20 12C20 11.8667 19.996 11.7377 19.988 11.613C19.98 11.4883 19.9673 11.359 19.95 11.225C19.9167 10.9417 19.971 10.671 20.113 10.413C20.255 10.155 20.4673 9.984 20.75 9.9C21.0167 9.81667 21.2667 9.84167 21.5 9.975C21.7333 10.1083 21.8667 10.3083 21.9 10.575C21.9333 10.8083 21.9583 11.0417 21.975 11.275C21.9917 11.5083 22 11.75 22 12C22 13.3833 21.7373 14.6833 21.212 15.9C20.6867 17.1167 19.9743 18.175 19.075 19.075C18.1757 19.975 17.1173 20.6877 15.9 21.213C14.6827 21.7383 13.3827 22.0007 12 22ZM10.6 13.8L19.9 4.475C20.0833 4.29167 20.3127 4.19567 20.588 4.187C20.8633 4.17833 21.1007 4.27433 21.3 4.475C21.4833 4.65833 21.575 4.89167 21.575 5.175C21.575 5.45833 21.4833 5.69167 21.3 5.875L11.3 15.9C11.1 16.1 10.8667 16.2 10.6 16.2C10.3333 16.2 10.1 16.1 9.9 15.9L7.05 13.05C6.86667 12.8667 6.775 12.6333 6.775 12.35C6.775 12.0667 6.86667 11.8333 7.05 11.65C7.23333 11.4667 7.46667 11.375 7.75 11.375C8.03333 11.375 8.26667 11.4667 8.45 11.65L10.6 13.8Z" fill="#00AA11"/>
</svg>
